<?xml version="1.0" encoding="iso-8859-1"?>
<!-- Uploaded to: SVG Repo, www.svgrepo.com, Generator: SVG Repo Mixer Tools -->
<svg height="800px" width="800px" version="1.1" id="Layer_1" xmlns="http://www.w3.org/2000/svg" xmlns:xlink="http://www.w3.org/1999/xlink" 
	 viewBox="0 0 512 512" xml:space="preserve">
<path style="fill:#FFDB6C;" d="M392.943,121.165h-66.722c-3.875-16.598-10.484-32.089-19.324-45.367h86.047
	c18.639,0,33.748-15.109,33.748-33.748S411.582,8.301,392.943,8.301H119.056c-18.639,0-33.748,15.109-33.748,33.748
	s15.109,33.748,33.748,33.748h64.511c31.52,0,58.785,18.811,71.491,45.367H119.056c-18.639,0-33.748,15.109-33.748,33.748
	s15.109,33.748,33.748,33.748h136.1c-12.662,26.556-39.986,45.367-71.59,45.367h-64.511c-18.639,0-33.748,14.556-33.748,33.195
	c0,9.821,4.199,18.384,10.896,24.551l181.389,200.37c6.662,7.364,15.832,11.04,25.037,11.04c8.073,0,16.173-2.913,22.63-8.756
	c13.822-12.505,14.891-33.864,2.387-47.685L194.887,300.535c64.217-4.966,116.982-52.123,131.387-111.875h66.669
	c18.639,0,33.749-15.109,33.749-33.748S411.582,121.165,392.943,121.165z"/>
<g>
	<path style="fill:#FFB04C;" d="M405.668,18.935c-0.066,18.704-15.73,33.627-34.435,33.627h-57.16
		c-12.164,0-20.36,12.326-15.778,23.594c1.268,3.12,2.434,6.306,3.492,9.549c2.365,7.25,9.029,12.224,16.654,12.224h0.266
		c-3.301-7.862-7.257-15.291-11.81-22.13h85.335c18.444,0,34.02-14.501,34.45-32.941c0.347-14.888-8.948-27.652-22.079-32.486
		C405.308,13.107,405.679,15.976,405.668,18.935z"/>
	<path style="fill:#FFB04C;" d="M119.056,75.798h64.511c17.575,0,33.823,5.852,46.965,15.631
		c-13.81-23.071-39.11-38.867-67.988-38.867H98.032c-4.099,0-8.026-0.731-11.66-2.07C90.121,65.045,103.332,75.798,119.056,75.798z"
		/>
	<path style="fill:#FFB04C;" d="M404.603,123.235c0.705,2.735,1.074,5.606,1.064,8.563c-0.066,18.704-15.73,33.627-34.435,33.627
		h-50.331c-8.901,0-16.838,5.607-19.803,14.001c-18.718,52.984-68.125,93.303-127.236,97.874l21.093,23.23
		c64.185-4.995,116.918-52.138,131.317-111.868h65.958c18.444,0,34.02-14.501,34.45-32.941
		C427.03,140.833,417.734,128.069,404.603,123.235z"/>
	<path style="fill:#FFB04C;" d="M307.825,424.915c11.214,13.829,9.773,34.19-3.588,46.277c-6.458,5.842-14.557,8.756-22.63,8.756
		c-9.205,0-18.376-3.675-25.037-11.04l21.024,23.237c6.662,7.364,15.832,11.04,25.037,11.04c8.073,0,16.173-2.913,22.63-8.756
		c13.823-12.505,14.891-33.864,2.387-47.685L307.825,424.915z"/>
	<path style="fill:#FFB04C;" d="M217.503,188.462c8.656-8.355,2.574-23.036-9.457-23.036H98.032c-4.099,0-8.026-0.731-11.66-2.07
		c3.748,14.554,16.961,25.307,32.684,25.307h98.239C217.365,188.595,217.433,188.529,217.503,188.462z"/>
</g>
<path d="M392.943,112.864H332.66c-2.808-10.057-6.617-19.767-11.273-28.769h71.557c23.185,0,42.047-18.863,42.047-42.047
	S416.129,0,392.944,0H119.056C95.871,0,77.009,18.863,77.009,42.047s18.863,42.047,42.047,42.047h64.511
	c22.431,0,43.529,10.96,56.822,28.769H119.056c-23.185,0-42.047,18.863-42.047,42.047s18.863,42.047,42.047,42.047h121.447
	c-13.279,17.809-34.419,28.769-56.936,28.769h-64.511c-23.185,0-42.047,18.739-42.047,41.771c0,11.666,4.714,22.49,13.281,30.523
	l181.148,200.173c7.937,8.773,19.305,13.806,31.191,13.806c10.427,0,20.441-3.865,28.198-10.884
	c8.329-7.535,13.225-17.863,13.786-29.082c0.561-11.221-3.279-21.986-10.818-30.321L211.667,306.963
	c44.675-8.307,83.878-36.25,106.933-76.969c2.258-3.988,0.855-9.052-3.133-11.311c-3.988-2.257-9.052-0.855-11.311,3.133
	c-23.07,40.742-64.156,67.178-109.909,70.716c-3.158,0.245-5.901,2.264-7.072,5.206s-0.564,6.294,1.562,8.641l132.753,146.475
	c4.561,5.041,6.885,11.557,6.545,18.35c-0.34,6.792-3.303,13.044-8.345,17.605c-4.7,4.252-10.76,6.594-17.062,6.594
	c-7.204,0-14.087-3.041-18.884-8.343L102.357,286.619c-0.169-0.187-0.346-0.366-0.531-0.537c-5.3-4.88-8.219-11.48-8.219-18.584
	c0-13.88,11.417-25.173,25.45-25.173h64.511c33.529,0,64.57-19.664,79.081-50.094c1.226-2.57,1.047-5.591-0.472-8
	c-1.52-2.409-4.17-3.869-7.019-3.869h-136.1c-14.033,0-25.45-11.416-25.45-25.45c0-14.034,11.417-25.45,25.45-25.45h136.002
	c2.85,0,5.502-1.463,7.021-3.875c1.52-2.412,1.695-5.434,0.465-8.006c-14.557-30.426-45.558-50.085-78.978-50.085h-64.511
	c-14.033,0-25.45-11.416-25.45-25.45s11.417-25.45,25.45-25.45h273.887c14.033,0,25.45,11.416,25.45,25.45
	s-11.417,25.45-25.45,25.45h-86.046c-3.06,0-5.871,1.683-7.315,4.381c-1.445,2.698-1.288,5.971,0.407,8.517
	c8.255,12.398,14.531,27.148,18.151,42.655c0.876,3.755,4.225,6.412,8.082,6.412h66.721c14.033,0,25.45,11.416,25.45,25.45
	c0,14.034-11.417,25.45-25.45,25.45h-66.97c-4.583,0-8.299,3.715-8.299,8.299c0,4.584,3.716,8.299,8.299,8.299h66.97
	c23.185,0,42.047-18.863,42.047-42.047S416.128,112.864,392.943,112.864z"/>
</svg>